<?xml version="1.0" encoding="UTF-8"?>
<svg id="Layer_2" data-name="Layer 2" xmlns="http://www.w3.org/2000/svg" viewBox="0 0 53.91 46.69">
  <defs>
    <style>
      .cls-1 {
        fill: #323232;
      }
    </style>
  </defs>
  <g id="Layer_4" data-name="Layer 4">
    <polygon class="cls-1" points="18.83 9.26 35.08 9.26 37.85 14.07 48.55 14.07 40.43 0 13.48 0 5.35 14.07 16.05 14.07 18.83 9.26"/>
    <polygon class="cls-1" points="10.7 23.34 15.09 15.74 4.39 15.74 0 23.34 4.39 30.95 15.09 30.95 10.7 23.34"/>
    <polygon class="cls-1" points="37.85 32.62 35.08 37.42 18.83 37.42 16.05 32.62 5.35 32.62 13.48 46.69 40.43 46.69 48.55 32.62 37.85 32.62"/>
    <path class="cls-1" d="M48.94,16.74l3.81,6.61-3.81,6.61h-8.39l3.53-6.11.29-.5-.29-.5-3.53-6.11h8.39M49.52,15.74h-10.7l4.39,7.61-4.39,7.61h10.7l4.39-7.61-4.39-7.61h0Z"/>
  </g>
</svg>