<svg width="122" height="122" viewBox="0 0 122 122" fill="none" xmlns="http://www.w3.org/2000/svg">
<g clip-path="url(#clip0_91_2)">
<path d="M110.964 0H11.0359C4.941 0 0 4.941 0 11.0359V110.964C0 117.059 4.941 122 11.0359 122H110.964C117.059 122 122 117.059 122 110.964V11.0359C122 4.941 117.059 0 110.964 0ZM37.752 105.343C37.752 107.117 36.3142 108.554 34.5404 108.554H20.8693C19.0956 108.554 17.6577 107.117 17.6577 105.343V48.0345C17.6577 46.2607 19.0956 44.8229 20.8693 44.8229H34.5404C36.3142 44.8229 37.752 46.2607 37.752 48.0345V105.343ZM27.7049 39.4207C20.5321 39.4207 14.7173 33.6059 14.7173 26.4331C14.7173 19.2604 20.5321 13.4455 27.7049 13.4455C34.8776 13.4455 40.6924 19.2604 40.6924 26.4331C40.6924 33.6059 34.8779 39.4207 27.7049 39.4207ZM109.196 105.602C109.196 107.232 107.874 108.554 106.243 108.554H91.5735C89.9427 108.554 88.6205 107.232 88.6205 105.602V78.7207C88.6205 74.7106 89.7968 61.1485 78.141 61.1485C69.0999 61.1485 67.2661 70.4314 66.8978 74.5973V105.602C66.8978 107.232 65.576 108.554 63.9449 108.554H49.7565C48.1258 108.554 46.8036 107.232 46.8036 105.602V47.7758C46.8036 46.1451 48.1258 44.8229 49.7565 44.8229H63.9449C65.5756 44.8229 66.8978 46.1451 66.8978 47.7758V52.7755C70.2503 47.7445 75.2325 43.8612 85.8404 43.8612C109.331 43.8612 109.196 65.8072 109.196 77.8654V105.602Z" fill="#B9B9B9"/>
</g>
<defs>
<clipPath id="clip0_91_2">
<rect width="122" height="122" fill="white"/>
</clipPath>
</defs>
</svg>
